<svg xmlns="http://www.w3.org/2000/svg" fill="white" width="16" height="16" viewBox="0 0 16 16"><path d="M15.732 10.245c-0.473-0.507-1.443-0.798-2.816-0.798-0.733 0-1.583 0.073-2.507 0.247-0.521-0.513-1.041-1.113-1.538-1.813-0.353-0.493-0.662-1.013-0.947-1.527 0.542-1.693 0.804-3.073 0.804-4.067 0-1.115-0.402-2.277-1.56-2.277-0.355 0-0.711 0.217-0.9 0.533-0.522 0.939-0.287 2.995 0.611 5.027-0.335 1.013-0.69 1.982-1.133 3.070-0.385 0.917-0.829 1.863-1.282 2.731-2.603 1.056-4.287 2.289-4.445 3.256-0.069 0.365 0.049 0.7 0.305 0.967 0.089 0.073 0.424 0.363 0.987 0.363 1.727 0 3.547-2.853 4.471-4.573 0.71-0.24 1.42-0.458 2.129-0.677 0.779-0.215 1.56-0.389 2.27-0.51 1.823 1.669 3.431 1.933 4.239 1.933 0.995 0 1.349-0.411 1.469-0.748 0.187-0.433 0.047-0.913-0.168-1.16zM14.809 10.948c-0.069 0.363-0.425 0.604-0.924 0.604-0.14 0-0.26-0.025-0.402-0.048-0.907-0.217-1.755-0.677-2.602-1.404 0.833-0.143 1.54-0.167 1.987-0.167 0.493 0 0.92 0.021 1.207 0.096 0.327 0.071 0.847 0.29 0.73 0.92zM9.793 9.81c-0.613 0.127-1.276 0.276-1.963 0.462-0.544 0.149-1.111 0.316-1.68 0.513 0.309-0.601 0.569-1.183 0.805-1.735 0.285-0.68 0.52-1.38 0.757-2.031 0.233 0.407 0.493 0.82 0.753 1.187 0.427 0.58 0.873 1.133 1.32 1.613zM6.693 0.82c0.097-0.193 0.287-0.291 0.452-0.291 0.497 0 0.591 0.579 0.591 1.040 0 0.779-0.236 1.961-0.64 3.311-0.708-1.88-0.757-3.453-0.403-4.061zM4.092 12.085c-1.207 2.029-2.365 3.289-3.075 3.289-0.14 0-0.258-0.050-0.353-0.122-0.143-0.144-0.213-0.315-0.165-0.507 0.142-0.727 1.491-1.742 3.594-2.66z"/></svg>