<svg xmlns="http://www.w3.org/2000/svg" fill="white" width="16" height="16" viewBox="0 0 16 16"><path d="M8 0c-0.998 0-1.833 0.643-2.165 1.447-0.102 0.25-0.161 0.541-0.161 0.845 0 0.035 0.001 0.070 0.002 0.104l-0-0.005c-0.214-0.233-0.473-0.421-0.764-0.55l-0.015-0.006c-0.261-0.109-0.564-0.173-0.882-0.173-0.033 0-0.066 0.001-0.098 0.002l0.005-0c-0.618 0.020-1.172 0.276-1.578 0.68l0-0c-0.707 0.705-0.842 1.75-0.509 2.553 0.119 0.288 0.313 0.547 0.547 0.769-0.019-0.001-0.042-0.001-0.064-0.001-0.314 0-0.613 0.062-0.886 0.175l0.015-0.006c-0.803 0.333-1.447 1.167-1.447 2.165s0.643 1.833 1.447 2.165c0.291 0.121 0.616 0.167 0.943 0.157-0.238 0.225-0.433 0.488-0.555 0.78-0.333 0.803-0.197 1.848 0.509 2.553 0.705 0.707 1.75 0.842 2.553 0.509 0.291-0.121 0.553-0.317 0.779-0.555-0.009 0.327 0.038 0.651 0.159 0.943 0.333 0.803 1.167 1.447 2.165 1.447s1.833-0.643 2.165-1.447c0.102-0.25 0.161-0.541 0.161-0.845 0-0.035-0.001-0.070-0.002-0.104l0 0.005c0.225 0.237 0.487 0.435 0.779 0.556 0.803 0.333 1.848 0.197 2.553-0.509 0.707-0.705 0.842-1.75 0.509-2.553-0.135-0.306-0.323-0.565-0.554-0.777l-0.002-0.002c0.030 0.001 0.064 0.002 0.099 0.002 0.304 0 0.595-0.059 0.86-0.166l-0.015 0.005c0.803-0.333 1.447-1.167 1.447-2.165s-0.643-1.833-1.447-2.165c-0.25-0.101-0.539-0.16-0.842-0.16-0.035 0-0.070 0.001-0.105 0.002l0.005-0c0.238-0.225 0.433-0.488 0.555-0.78 0.333-0.803 0.197-1.848-0.509-2.553-0.406-0.404-0.96-0.66-1.574-0.68l-0.004-0c-0.028-0.001-0.061-0.002-0.094-0.002-0.318 0-0.621 0.063-0.897 0.178l0.015-0.006c-0.291 0.121-0.553 0.317-0.779 0.555 0.001-0.029 0.002-0.063 0.002-0.098 0-0.304-0.059-0.594-0.166-0.86l0.005 0.015c-0.333-0.803-1.167-1.447-2.165-1.447zM7.973 1.075c0.008-0 0.018-0 0.028-0 0.7 0 1.268 0.568 1.268 1.268 0 0.35-0.142 0.667-0.371 0.896v0 2.595l1.835-1.835c0-0.7 0.568-1.268 1.268-1.268s1.268 0.568 1.268 1.268c0 0.7-0.568 1.268-1.268 1.268v0l-1.835 1.835h2.595c0.229-0.229 0.546-0.371 0.896-0.371 0.7 0 1.268 0.568 1.268 1.268s-0.568 1.268-1.268 1.268c-0.35 0-0.666-0.142-0.896-0.371l0 0h-2.595l1.835 1.835c0.7 0 1.268 0.568 1.268 1.268s-0.568 1.268-1.268 1.268c-0.7 0-1.268-0.568-1.268-1.268v0l-1.835-1.835v2.595c0.229 0.229 0.371 0.546 0.371 0.896 0 0.7-0.568 1.268-1.268 1.268s-1.268-0.568-1.268-1.268c0-0.35 0.142-0.666 0.371-0.896l-0 0v-2.595l-1.835 1.835c0 0.7-0.568 1.268-1.268 1.268s-1.268-0.568-1.268-1.268c0-0.7 0.568-1.268 1.268-1.268v0l1.835-1.835h-2.595c-0.229 0.229-0.546 0.371-0.896 0.371-0.7 0-1.268-0.568-1.268-1.268s0.568-1.268 1.268-1.268c0.35 0 0.667 0.142 0.896 0.371l-0-0h2.595l-1.835-1.835c-0.7 0-1.268-0.568-1.268-1.268s0.568-1.268 1.268-1.268c0.7 0 1.268 0.568 1.268 1.268l1.835 1.835v-2.595c-0.229-0.229-0.371-0.546-0.371-0.896 0-0.691 0.552-1.253 1.24-1.268l0.001-0z"/></svg>